<?xml version="1.0" standalone="no"?>
<!DOCTYPE svg PUBLIC "-//W3C//DTD SVG 20010904//EN"
 "http://www.w3.org/TR/2001/REC-SVG-20010904/DTD/svg10.dtd">
<svg version="1.0" xmlns="http://www.w3.org/2000/svg"
 width="512.000000pt" height="512.000000pt" viewBox="0 0 512.000000 512.000000"
 preserveAspectRatio="xMidYMid meet">

<g transform="translate(0.000000,512.000000) scale(0.100000,-0.100000)"
fill="#000000" stroke="none">
<path d="M650 5105 c-330 -67 -572 -312 -636 -643 -21 -110 -21 -2914 0 -3025
32 -168 113 -314 240 -434 124 -119 256 -183 432 -211 l104 -16 0 -186 c0
-125 5 -202 14 -236 65 -246 334 -403 581 -339 117 31 142 52 510 417 l351
348 1061 0 c897 0 1074 2 1146 15 163 28 289 91 409 204 135 127 220 285 247
461 9 55 11 457 9 1535 -3 1329 -5 1465 -20 1515 -49 161 -111 271 -213 373
-99 101 -212 166 -375 215 -50 16 -208 17 -1925 19 -1515 1 -1882 -1 -1935
-12z m3842 -427 c91 -45 147 -103 191 -196 l32 -67 0 -1465 0 -1465 -32 -67
c-36 -76 -108 -155 -171 -187 -102 -52 -74 -51 -1244 -51 -1076 0 -1089 0
-1150 -21 -34 -11 -76 -30 -93 -41 -16 -12 -188 -178 -380 -370 -376 -373
-373 -371 -429 -327 l-26 20 0 183 c0 204 -8 267 -46 343 -61 125 -176 198
-337 213 -191 18 -302 92 -375 247 l-27 58 0 1465 0 1465 32 67 c17 37 50 87
72 111 44 48 135 101 197 116 23 5 789 8 1875 8 l1835 -2 76 -37z"/>
<path d="M1312 3729 c-47 -14 -109 -79 -123 -131 -23 -89 12 -182 88 -229 l38
-24 1245 0 1245 0 38 24 c21 13 50 42 65 64 23 34 27 52 27 107 0 55 -4 73
-27 107 -15 22 -44 51 -65 64 l-38 24 -1230 2 c-758 1 -1243 -2 -1263 -8z"/>
<path d="M1312 2549 c-47 -14 -109 -79 -123 -131 -23 -89 12 -182 88 -229 l38
-24 725 -3 c506 -2 736 0 763 8 44 13 102 61 124 104 21 40 21 132 1 171 -22
41 -66 81 -110 99 -33 14 -127 16 -755 15 -420 0 -732 -5 -751 -10z"/>
<path d="M3365 2541 c-163 -74 -159 -296 7 -365 53 -22 283 -22 336 0 80 33
125 100 125 184 0 84 -45 151 -125 184 -57 24 -289 22 -343 -3z"/>
</g>
</svg>
