<?xml version="1.0" standalone="no"?>
<!DOCTYPE svg PUBLIC "-//W3C//DTD SVG 20010904//EN"
 "http://www.w3.org/TR/2001/REC-SVG-20010904/DTD/svg10.dtd">
<svg version="1.0" xmlns="http://www.w3.org/2000/svg"
 width="512.000000pt" height="512.000000pt" viewBox="0 0 512.000000 512.000000"
 preserveAspectRatio="xMidYMid meet">

<g transform="translate(0.000000,512.000000) scale(0.100000,-0.100000)"
fill="#000000" stroke="none">
<path d="M3665 4781 c-24 -11 -242 -205 -540 -479 l-500 -461 -83 0 -82 -1
-398 366 c-440 405 -461 421 -559 411 -127 -13 -223 -120 -223 -249 0 -85 31
-125 260 -335 l204 -188 -379 -6 c-401 -6 -406 -6 -547 -59 -77 -29 -191 -104
-261 -175 -70 -68 -148 -184 -177 -263 -58 -154 -55 -82 -55 -1262 0 -1180 -3
-1108 55 -1262 66 -178 260 -372 438 -438 156 -59 34 -55 1742 -55 1708 0
1586 -4 1742 55 178 66 372 260 438 438 58 154 55 82 55 1262 0 1180 3 1108
-55 1262 -29 77 -104 191 -175 261 -68 70 -184 148 -263 177 -142 53 -144 53
-566 59 l-399 6 284 261 c332 306 343 317 363 366 47 112 -21 264 -140 314
-47 20 -131 17 -179 -5z m483 -1460 c70 -38 100 -69 140 -145 l27 -51 0 -1045
0 -1045 -27 -51 c-40 -76 -70 -107 -140 -145 l-63 -34 -1525 0 -1525 0 -63 34
c-70 38 -100 69 -140 145 l-27 51 0 1045 0 1045 23 45 c12 25 35 61 51 81 31
37 114 87 165 100 17 4 708 6 1536 6 l1505 -2 63 -34z"/>
<path d="M2045 3027 c-93 -31 -182 -102 -230 -182 -54 -93 -55 -108 -55 -765
0 -657 1 -672 55 -765 36 -60 116 -132 183 -163 50 -24 69 -27 162 -27 97 0
110 2 170 31 122 60 1015 592 1062 633 32 28 60 68 85 119 36 72 38 81 38 172
0 91 -2 100 -38 172 -25 51 -53 91 -85 119 -48 42 -943 575 -1062 632 -55 27
-78 32 -155 34 -55 2 -105 -2 -130 -10z m558 -736 c191 -112 347 -207 347
-211 0 -6 -672 -407 -702 -418 -4 -2 -8 186 -8 418 0 232 4 420 8 418 5 -1
165 -95 355 -207z"/>
</g>
</svg>
