<?xml version="1.0" standalone="no"?>
<!DOCTYPE svg PUBLIC "-//W3C//DTD SVG 20010904//EN"
 "http://www.w3.org/TR/2001/REC-SVG-20010904/DTD/svg10.dtd">
<svg version="1.0" xmlns="http://www.w3.org/2000/svg"
 width="512.000000pt" height="512.000000pt" viewBox="0 0 512.000000 512.000000"
 preserveAspectRatio="xMidYMid meet">

<g transform="translate(0.000000,512.000000) scale(0.100000,-0.100000)"
fill="#000000" stroke="none">
<path d="M613 4675 c-101 -27 -193 -83 -273 -164 -87 -87 -132 -165 -160 -277
-19 -75 -20 -115 -20 -1333 0 -1394 -3 -1328 67 -1470 43 -87 147 -200 227
-246 117 -68 163 -78 384 -84 l203 -6 -99 -142 c-108 -156 -128 -203 -119
-287 21 -202 250 -305 419 -187 23 16 120 138 255 323 l218 298 845 0 845 0
219 -300 c259 -353 278 -370 409 -370 140 1 250 99 264 236 9 84 -11 131 -118
287 l-99 142 197 6 c216 6 257 14 368 72 74 39 191 153 232 227 17 30 42 84
55 120 l23 65 3 1277 c3 1421 6 1353 -65 1497 -50 101 -159 212 -259 264 -140
72 19 67 -2079 66 -1591 0 -1898 -3 -1942 -14z m3874 -163 c147 -46 258 -164
298 -317 13 -52 15 -211 15 -1237 l0 -1178 -2240 0 -2240 0 0 1178 c0 1269 -1
1231 51 1335 52 101 148 183 255 217 57 18 125 19 1931 19 1783 1 1874 0 1930
-17z m-2977 -3417 c0 -10 -333 -461 -356 -482 -47 -43 -133 -25 -163 34 -25
49 -14 76 95 234 59 85 117 169 131 187 l24 32 135 0 c73 0 134 -2 134 -5z
m2502 -184 c131 -190 142 -214 117 -264 -26 -51 -99 -74 -149 -47 -16 9 -370
482 -370 495 0 3 62 4 137 3 l138 -3 127 -184z"/>
<path d="M2435 4180 c-108 -15 -287 -69 -300 -90 -3 -5 47 -99 111 -209 l116
-201 198 0 198 0 116 201 c64 110 114 205 111 209 -8 13 -110 49 -200 71 -93
22 -264 32 -350 19z"/>
<path d="M1930 3967 c-200 -157 -336 -398 -374 -664 l-6 -43 242 0 243 1 93
165 c62 109 92 171 87 182 -7 18 -214 382 -224 394 -4 4 -31 -12 -61 -35z"/>
<path d="M3016 3807 c-64 -112 -116 -206 -116 -211 0 -4 42 -82 93 -172 l92
-163 243 -1 243 0 -6 38 c-42 254 -125 422 -294 593 -53 53 -106 101 -117 107
-20 11 -28 0 -138 -191z"/>
<path d="M2363 3508 c-6 -7 -52 -84 -102 -172 l-92 -159 87 -151 c48 -83 92
-159 98 -168 10 -16 31 -18 206 -18 175 0 196 2 206 18 6 9 50 85 98 168 l87
151 -98 169 -98 169 -191 3 c-145 2 -194 -1 -201 -10z"/>
<path d="M1556 3058 c28 -204 102 -373 231 -531 58 -71 181 -179 197 -174 11
4 235 388 236 404 0 6 -43 86 -96 177 l-96 166 -239 0 -239 0 6 -42z"/>
<path d="M2996 2934 c-53 -91 -96 -171 -96 -177 1 -17 225 -400 236 -404 17
-6 141 104 199 176 123 152 204 339 228 524 l7 47 -239 0 -239 0 -96 -166z"/>
<path d="M2246 2474 c-67 -115 -115 -209 -110 -214 16 -14 149 -58 227 -74 99
-21 295 -21 394 0 77 16 211 60 227 74 4 5 -45 101 -110 214 l-119 206 -195 0
-195 0 -119 -206z"/>
</g>
</svg>
