<?xml version="1.0" standalone="no"?>
<!DOCTYPE svg PUBLIC "-//W3C//DTD SVG 20010904//EN"
 "http://www.w3.org/TR/2001/REC-SVG-20010904/DTD/svg10.dtd">
<svg version="1.0" xmlns="http://www.w3.org/2000/svg"
 width="512.000000pt" height="512.000000pt" viewBox="0 0 512.000000 512.000000"
 preserveAspectRatio="xMidYMid meet">

<g transform="translate(0.000000,512.000000) scale(0.100000,-0.100000)"
fill="#000000" stroke="none">
<path d="M2330 5110 c-494 -48 -950 -230 -1350 -538 -195 -150 -448 -432 -594
-662 -63 -99 -186 -351 -230 -471 -49 -135 -102 -340 -128 -499 -30 -191 -31
-553 0 -750 113 -735 525 -1375 1145 -1778 602 -391 1341 -509 2036 -327 180
48 297 92 476 180 269 132 460 269 681 489 220 221 357 412 489 681 88 179
132 296 180 476 63 240 78 371 78 649 0 278 -15 409 -78 649 -48 180 -92 297
-180 476 -132 269 -269 460 -489 681 -221 220 -412 357 -681 489 -246 121
-474 193 -740 235 -147 23 -475 34 -615 20z m560 -215 c204 -29 454 -102 631
-183 75 -34 69 -22 94 -187 36 -248 48 -422 49 -735 1 -405 -22 -649 -94
-1000 -30 -147 -83 -346 -94 -357 -8 -9 -100 21 -183 58 -201 90 -352 249
-443 467 -51 121 -98 302 -175 680 -80 393 -132 601 -191 759 -48 131 -137
320 -196 418 -31 51 -44 81 -36 83 110 24 464 22 638 -3z m-812 -122 c96 -151
189 -353 251 -546 46 -145 78 -277 146 -617 81 -401 121 -555 182 -706 97
-238 223 -397 411 -518 87 -57 196 -108 280 -131 34 -10 62 -21 62 -26 0 -15
-60 -162 -122 -296 l-61 -132 -111 56 c-709 355 -1448 920 -2030 1553 -193
210 -436 502 -436 524 0 12 145 187 222 267 274 286 642 509 1033 624 119 35
116 36 173 -52z m1837 -287 c325 -230 584 -534 761 -892 l67 -135 -7 -77 c-15
-177 -44 -279 -114 -414 -105 -202 -282 -352 -532 -452 -140 -56 -400 -114
-400 -89 0 4 9 42 21 83 55 198 98 440 130 735 18 166 22 258 22 535 0 321 -2
366 -39 709 -8 73 -16 73 91 -3z m-3326 -808 c168 -220 543 -618 815 -867 505
-460 1080 -862 1624 -1135 50 -25 92 -50 92 -56 0 -15 -161 -251 -175 -257 -8
-2 -49 11 -92 30 -173 78 -406 141 -633 172 -63 8 -241 26 -395 40 -428 39
-626 74 -855 151 -203 68 -496 228 -680 369 l-57 44 -11 98 c-44 382 -8 725
114 1075 37 106 179 408 192 408 4 -1 31 -33 61 -72z m4300 -745 c60 -387 25
-776 -104 -1154 -40 -115 -190 -428 -210 -435 -32 -13 -488 113 -745 205 -112
40 -405 157 -418 166 -1 1 21 51 49 110 29 60 76 170 104 244 50 129 54 136
81 139 130 11 318 53 454 99 93 32 275 122 354 176 82 56 200 169 263 254 51
69 143 237 143 262 0 6 4 11 8 11 5 0 14 -35 21 -77z m-4464 -1143 c169 -104
395 -204 586 -258 223 -65 381 -90 799 -127 326 -29 449 -46 607 -81 154 -34
393 -117 393 -137 0 -18 -320 -327 -425 -411 -182 -144 -426 -303 -596 -387
l-67 -32 -68 27 c-38 15 -120 54 -182 86 -450 236 -803 598 -1027 1054 -60
123 -135 308 -135 333 0 3 10 -1 23 -9 12 -9 54 -34 92 -58z m3255 -400 c194
-72 441 -150 624 -196 77 -20 142 -37 145 -39 7 -7 -125 -162 -224 -261 -164
-165 -350 -303 -556 -413 -53 -28 -98 -51 -100 -51 -3 0 1 37 9 83 42 245
-100 512 -363 684 -38 26 -74 50 -79 54 -4 4 33 70 84 147 l93 140 106 -45
c58 -25 176 -71 261 -103z m-583 -355 c208 -142 313 -326 283 -497 -11 -61
-70 -197 -94 -217 -7 -6 -64 -24 -127 -40 -302 -77 -595 -97 -894 -60 -76 10
-209 34 -248 46 -14 4 10 22 90 70 292 175 581 411 788 643 55 60 104 110 109
110 6 0 48 -25 93 -55z"/>
</g>
</svg>
