<?xml version="1.0" standalone="no"?>
<!DOCTYPE svg PUBLIC "-//W3C//DTD SVG 20010904//EN"
 "http://www.w3.org/TR/2001/REC-SVG-20010904/DTD/svg10.dtd">
<svg version="1.0" xmlns="http://www.w3.org/2000/svg"
 width="512.000000pt" height="512.000000pt" viewBox="0 0 512.000000 512.000000"
 preserveAspectRatio="xMidYMid meet">

<g transform="translate(0.000000,512.000000) scale(0.100000,-0.100000)"
fill="#000000" stroke="none">
<path d="M1895 5110 c-1010 -113 -1784 -893 -1885 -1899 -45 -448 67 -920 311
-1313 187 -303 481 -577 800 -747 389 -207 808 -280 1295 -225 l60 6 19 -48
c121 -323 366 -592 678 -744 213 -104 421 -147 652 -136 545 25 1017 369 1211
883 98 257 108 574 28 851 -101 349 -367 665 -699 829 -44 22 -102 48 -129 58
l-48 19 6 60 c46 408 5 751 -129 1087 -115 285 -269 513 -496 734 -313 304
-682 491 -1114 566 -137 23 -430 33 -560 19z m515 -315 c52 -10 101 -20 109
-25 9 -5 -51 -54 -190 -155 -112 -82 -211 -149 -219 -149 -8 -1 -108 66 -222
149 -160 116 -203 151 -189 157 18 6 180 34 251 42 75 9 369 -3 460 -19z
m-760 -378 l305 -223 2 -174 3 -175 -296 -214 -296 -214 -155 48 c-85 27 -160
53 -168 59 -7 6 -66 173 -131 371 l-117 360 91 86 c122 115 394 299 442 299 8
-1 152 -101 320 -223z m1303 192 c80 -41 212 -128 291 -192 91 -74 175 -158
171 -171 -2 -6 -56 -172 -120 -368 l-116 -356 -161 -52 c-107 -34 -167 -49
-178 -43 -9 4 -143 100 -298 213 l-282 204 0 176 0 175 307 223 c169 122 311
222 315 222 5 0 37 -14 71 -31z m-2299 -884 c42 -129 79 -240 82 -248 3 -9
-65 -64 -207 -166 -116 -84 -214 -150 -217 -147 -10 11 19 193 49 306 16 62
45 153 65 204 45 113 135 286 149 286 2 0 38 -106 79 -235z m3076 80 c91 -184
150 -384 176 -599 5 -48 4 -57 -7 -51 -10 7 -403 290 -418 302 -4 3 124 414
151 482 9 26 10 26 24 6 8 -11 42 -74 74 -140z m-1420 -368 c108 -78 228 -165
267 -194 l71 -52 -102 -313 -102 -313 -335 -3 -335 -2 -103 316 c-97 299 -102
317 -84 329 10 7 130 94 267 194 137 99 252 181 255 181 3 0 94 -64 201 -143z
m-1043 -311 c10 -10 224 -655 227 -684 1 -7 -44 -75 -99 -152 l-100 -139 -388
-1 -388 0 -49 103 c-58 122 -101 248 -128 377 -37 173 -72 126 286 383 l314
224 156 -50 c86 -27 162 -55 169 -61z m2423 -191 c113 -82 207 -150 208 -151
2 -1 1 -20 -3 -41 l-6 -38 -147 -1 c-113 0 -171 -6 -251 -23 -236 -51 -446
-156 -621 -311 l-65 -57 -44 60 -45 60 42 126 c22 69 73 226 113 349 l72 222
166 54 165 53 106 -77 c58 -42 197 -143 310 -225z m335 -559 c374 -97 660
-384 762 -764 23 -85 26 -116 26 -257 0 -142 -3 -171 -26 -260 -101 -375 -387
-661 -762 -762 -89 -23 -118 -26 -260 -26 -142 0 -171 3 -260 26 -375 101
-661 387 -762 762 -23 89 -26 118 -26 260 0 142 3 171 26 260 109 406 428 701
844 780 118 22 311 14 438 -19z m-1484 -211 l70 -96 -49 -97 c-104 -203 -145
-371 -146 -594 l-1 -147 -31 -5 c-126 -24 -391 -24 -556 0 l-48 7 -120 367
c-66 202 -120 371 -120 374 0 3 46 69 102 146 l102 140 363 0 363 0 71 -95z
m-1195 -568 c45 -138 80 -254 78 -256 -2 -2 -50 19 -106 47 -108 53 -223 124
-323 201 -71 54 -219 194 -247 233 l-19 28 268 0 268 0 81 -253z"/>
<path d="M3610 2181 l0 -79 -32 -7 c-63 -13 -159 -68 -213 -122 -174 -174
-177 -441 -8 -623 101 -110 217 -149 444 -150 83 0 101 -3 129 -22 89 -61 91
-178 4 -244 -35 -27 -45 -29 -143 -32 -59 -2 -124 1 -147 7 -49 13 -94 58
-103 103 l-7 33 -152 3 -152 3 6 -43 c8 -64 32 -138 60 -185 54 -93 180 -187
282 -208 l32 -7 0 -79 0 -79 155 0 155 0 0 78 0 78 58 18 c79 25 128 55 190
118 215 217 152 578 -125 715 -75 37 -76 37 -237 43 -177 7 -207 16 -246 70
-48 67 -33 154 36 206 35 27 44 29 146 33 86 2 119 0 154 -14 48 -18 94 -73
94 -112 0 -23 1 -23 151 -23 l152 0 -6 60 c-14 162 -157 325 -324 369 l-43 12
0 79 0 80 -155 0 -155 0 0 -79z"/>
</g>
</svg>
