<svg version="1.1" id="Layer_1" xmlns="http://www.w3.org/2000/svg" xmlns:xlink="http://www.w3.org/1999/xlink" x="0px" y="0px"
	 width="100%" viewBox="0 0 512 512" enable-background="new 0 0 512 512" xml:space="preserve">
<path fill="#C42014" opacity="1.000000" stroke="none" 
	d="
M262.000000,513.000000 
	C253.312439,513.000000 244.624863,513.000000 235.289825,512.607910 
	C226.554001,511.146973 218.449341,510.187805 210.380402,508.988159 
	C187.787888,505.629150 166.457626,498.162201 145.941238,488.388763 
	C125.747948,478.769257 107.155266,466.627197 90.281822,451.850830 
	C74.367249,437.914154 60.001766,422.660675 47.680698,405.396301 
	C34.694363,387.199707 24.264296,367.668365 16.502537,346.806549 
	C9.830906,328.874786 4.949497,310.387512 2.961684,291.244324 
	C2.535417,287.139252 1.665530,283.080231 1.000001,279.000000 
	C1.000000,264.645782 1.000000,250.291550 1.392039,235.289856 
	C2.853013,226.554031 3.812182,218.449326 5.011836,210.380386 
	C8.370801,187.787872 15.837811,166.457642 25.611219,145.941254 
	C35.230736,125.747948 47.372765,107.155212 62.149216,90.281807 
	C76.085938,74.367302 91.339333,60.001740 108.603729,47.680695 
	C126.800308,34.694382 146.331619,24.264301 167.193420,16.502529 
	C185.125198,9.830894 203.612473,4.949501 222.755676,2.961684 
	C226.860764,2.535416 230.919769,1.665529 235.000000,1.000001 
	C243.687561,1.000000 252.375122,1.000000 261.542999,1.468545 
	C262.026947,44.072922 262.031464,86.208755 262.032257,128.344589 
	C262.032288,130.971985 261.515717,133.823227 264.590240,134.908539 
	C254.408646,135.336655 244.432159,134.516266 234.944244,136.297806 
	C216.681961,139.726898 199.658707,146.811279 184.602173,158.069901 
	C169.588348,169.296585 157.430740,182.971817 148.757767,199.653549 
	C138.271866,219.822281 133.482040,241.080139 134.831100,263.962891 
	C135.765839,279.818176 139.366943,294.787811 146.073196,308.997864 
	C153.457718,324.645111 163.618561,338.215729 176.905121,349.570374 
	C188.554688,359.526093 201.319199,367.214935 215.718033,372.326294 
	C231.688843,377.995697 248.066086,380.613220 264.735443,379.410278 
	C263.648071,381.566162 262.143341,383.473785 262.136810,385.386475 
	C261.991455,427.923981 262.011414,470.462036 262.000000,513.000000 
z"/>
<path fill="#840202" opacity="1.000000" stroke="none" 
	d="
M265.016052,134.835434 
	C261.515717,133.823227 262.032288,130.971985 262.032257,128.344589 
	C262.031464,86.208755 262.026947,44.072922 262.011658,1.468545 
	C267.688049,1.000000 273.376068,1.000000 279.698364,1.396570 
	C288.515747,2.868287 296.730560,3.746496 304.875702,5.057373 
	C325.209076,8.329800 344.722656,14.637305 363.324860,23.219416 
	C397.894867,39.168224 427.539124,61.807144 452.377808,90.801445 
	C465.259888,105.838753 476.239410,122.096642 485.065582,139.716766 
	C489.806641,149.181625 493.241119,159.316193 497.027740,169.239166 
	C500.180084,177.500000 503.597717,185.737198 505.772095,194.271667 
	C507.917084,202.690674 508.590546,211.479477 510.021545,220.087418 
	C510.906281,225.409576 512.000122,230.696976 513.000000,236.000000 
	C513.000000,250.020889 513.000000,264.041779 512.620483,278.674316 
	C510.161407,291.210297 507.498627,303.069519 506.158600,315.076385 
	C504.677429,328.348297 499.674835,340.424438 494.868835,352.530426 
	C490.695801,363.042084 485.590454,373.241821 480.194244,383.198456 
	C465.845001,409.674255 446.520416,432.114197 423.775421,451.773712 
	C404.007568,468.859985 382.228668,482.667786 358.230927,492.905396 
	C336.909576,502.001282 314.795074,508.352631 291.694244,511.034088 
	C287.772919,511.489288 283.896942,512.334839 280.000000,513.000000 
	C274.311951,513.000000 268.623932,513.000000 262.467926,513.000000 
	C262.011414,470.462036 261.991455,427.923981 262.136810,385.386475 
	C262.143341,383.473785 263.648071,381.566162 265.178741,379.335815 
	C273.393768,377.754517 281.087769,377.196136 288.338837,375.103149 
	C311.674255,368.367432 331.503510,355.900330 347.879486,337.774689 
	C356.006866,328.778992 363.157623,319.198242 368.185822,308.240662 
	C371.632324,300.730011 374.023926,292.735291 377.177551,284.720459 
	C381.649597,271.279541 381.752686,257.728607 380.408844,244.163086 
	C379.934326,239.373138 378.131317,234.714798 376.965454,229.994720 
	C376.996033,229.993073 376.980591,230.052399 377.014252,229.681747 
	C376.673767,228.205688 376.299652,227.100281 375.958496,225.995697 
	C375.991455,225.996536 375.976044,226.060608 376.005646,225.722015 
	C375.757263,224.549652 375.479279,223.715897 375.132202,222.698944 
	C375.063171,222.515747 375.010010,222.127808 375.020142,221.775406 
	C374.649323,220.629868 374.268433,219.836716 373.556580,218.861725 
	C371.676910,214.468246 370.493500,210.076050 368.516785,206.075882 
	C359.523590,187.876663 346.892059,172.520142 330.712006,160.322235 
	C311.280212,145.672852 289.725067,136.083725 265.016052,134.835434 
z"/>
<path fill="#FFFFFF" opacity="1.000000" stroke="none" 
	d="
M513.000000,235.531342 
	C512.000122,230.696976 510.906281,225.409576 510.021545,220.087418 
	C508.590546,211.479477 507.917084,202.690674 505.772095,194.271667 
	C503.597717,185.737198 500.180084,177.500000 497.027740,169.239166 
	C493.241119,159.316193 489.806641,149.181625 485.065582,139.716766 
	C476.239410,122.096642 465.259888,105.838753 452.377808,90.801445 
	C427.539124,61.807144 397.894867,39.168224 363.324860,23.219416 
	C344.722656,14.637305 325.209076,8.329800 304.875702,5.057373 
	C296.730560,3.746496 288.515747,2.868287 280.166321,1.396570 
	C357.594025,1.000000 435.188019,1.000000 513.000000,1.000000 
	C513.000000,79.020760 513.000000,157.041718 513.000000,235.531342 
z"/>
<path fill="#FFFFFF" opacity="1.000000" stroke="none" 
	d="
M280.468658,513.000000 
	C283.896942,512.334839 287.772919,511.489288 291.694244,511.034088 
	C314.795074,508.352631 336.909576,502.001282 358.230927,492.905396 
	C382.228668,482.667786 404.007568,468.859985 423.775421,451.773712 
	C446.520416,432.114197 465.845001,409.674255 480.194244,383.198456 
	C485.590454,373.241821 490.695801,363.042084 494.868835,352.530426 
	C499.674835,340.424438 504.677429,328.348297 506.158600,315.076385 
	C507.498627,303.069519 510.161407,291.210297 512.620483,279.142975 
	C513.000000,356.926880 513.000000,434.853760 513.000000,513.000000 
	C435.645905,513.000000 358.291626,513.000000 280.468658,513.000000 
z"/>
<path fill="#FFFFFF" opacity="1.000000" stroke="none" 
	d="
M234.531342,1.000001 
	C230.919769,1.665529 226.860764,2.535416 222.755676,2.961684 
	C203.612473,4.949501 185.125198,9.830894 167.193420,16.502529 
	C146.331619,24.264301 126.800308,34.694382 108.603729,47.680695 
	C91.339333,60.001740 76.085938,74.367302 62.149216,90.281807 
	C47.372765,107.155212 35.230736,125.747948 25.611219,145.941254 
	C15.837811,166.457642 8.370801,187.787872 5.011836,210.380386 
	C3.812182,218.449326 2.853013,226.554031 1.392039,234.821198 
	C1.000000,157.072952 1.000000,79.145912 1.000000,1.000000 
	C78.687424,1.000000 156.375061,1.000000 234.531342,1.000001 
z"/>
<path fill="#FFFFFF" opacity="1.000000" stroke="none" 
	d="
M1.000001,279.468658 
	C1.665530,283.080231 2.535417,287.139252 2.961684,291.244324 
	C4.949497,310.387512 9.830906,328.874786 16.502537,346.806549 
	C24.264296,367.668365 34.694363,387.199707 47.680698,405.396301 
	C60.001766,422.660675 74.367249,437.914154 90.281822,451.850830 
	C107.155266,466.627197 125.747948,478.769257 145.941238,488.388763 
	C166.457626,498.162201 187.787888,505.629150 210.380402,508.988159 
	C218.449341,510.187805 226.554001,511.146973 234.821182,512.607910 
	C157.072968,513.000000 79.145927,513.000000 1.000000,513.000000 
	C1.000000,435.312561 1.000000,357.624939 1.000001,279.468658 
z"/>
<path fill="#FFFFFF" opacity="1.000000" stroke="none" 
	d="
M375.010010,222.127808 
	C375.010010,222.127808 375.063171,222.515747 375.047791,223.060577 
	C375.346924,224.423813 375.661469,225.242203 375.976044,226.060608 
	C375.976044,226.060608 375.991455,225.996536 375.991302,226.374985 
	C376.320953,227.853088 376.650757,228.952744 376.980591,230.052399 
	C376.980591,230.052399 376.996033,229.993073 376.996582,230.424210 
	C377.564453,234.346329 378.327637,237.819000 378.655853,241.332306 
	C379.232269,247.502960 380.141327,253.729996 379.818237,259.875977 
	C379.377197,268.264496 377.912781,276.599182 376.887146,284.956970 
	C374.023926,292.735291 371.632324,300.730011 368.185822,308.240662 
	C363.157623,319.198242 356.006866,328.778992 347.879486,337.774689 
	C331.503510,355.900330 311.674255,368.367432 288.338837,375.103149 
	C281.087769,377.196136 273.393768,377.754517 265.459229,379.089905 
	C248.066086,380.613220 231.688843,377.995697 215.718033,372.326294 
	C201.319199,367.214935 188.554688,359.526093 176.905121,349.570374 
	C163.618561,338.215729 153.457718,324.645111 146.073196,308.997864 
	C139.366943,294.787811 135.765839,279.818176 134.831100,263.962891 
	C133.482040,241.080139 138.271866,219.822281 148.757767,199.653549 
	C157.430740,182.971817 169.588348,169.296585 184.602173,158.069901 
	C199.658707,146.811279 216.681961,139.726898 234.944244,136.297806 
	C244.432159,134.516266 254.408646,135.336655 264.590240,134.908539 
	C289.725067,136.083725 311.280212,145.672852 330.712006,160.322235 
	C346.892059,172.520142 359.523590,187.876663 368.516785,206.075882 
	C370.493500,210.076050 371.676910,214.468246 373.604004,219.215225 
	C374.324890,220.542969 374.667450,221.335388 375.010010,222.127808 
M231.457962,286.974579 
	C240.108398,294.381805 250.108795,297.257477 261.389740,296.010712 
	C274.083099,294.607849 283.939453,288.588562 290.630615,277.747498 
	C295.796173,269.378265 297.475372,260.077057 295.918579,250.436249 
	C294.524719,241.804565 290.761108,233.932098 284.213379,228.143188 
	C275.354218,220.310730 264.870239,216.666885 252.720520,217.902847 
	C243.232056,218.868103 234.752579,222.493011 228.671921,229.205887 
	C218.070862,240.909195 214.497681,254.917252 220.025253,270.364105 
	C222.265747,276.625214 225.241730,282.485962 231.457962,286.974579 
z"/>
<path fill="#BB1C11" opacity="1.000000" stroke="none" 
	d="
M377.177551,284.720459 
	C377.912781,276.599182 379.377197,268.264496 379.818237,259.875977 
	C380.141327,253.729996 379.232269,247.502960 378.655853,241.332306 
	C378.327637,237.819000 377.564453,234.346329 376.966003,230.425873 
	C378.131317,234.714798 379.934326,239.373138 380.408844,244.163086 
	C381.752686,257.728607 381.649597,271.279541 377.177551,284.720459 
z"/>
<path fill="#BB1C11" opacity="1.000000" stroke="none" 
	d="
M377.014252,229.681747 
	C376.650757,228.952744 376.320953,227.853088 375.958344,226.374146 
	C376.299652,227.100281 376.673767,228.205688 377.014252,229.681747 
z"/>
<path fill="#BB1C11" opacity="1.000000" stroke="none" 
	d="
M375.020142,221.775406 
	C374.667450,221.335388 374.324890,220.542969 373.934937,219.397064 
	C374.268433,219.836716 374.649323,220.629868 375.020142,221.775406 
z"/>
<path fill="#BB1C11" opacity="1.000000" stroke="none" 
	d="
M376.005646,225.722015 
	C375.661469,225.242203 375.346924,224.423813 375.116821,223.243774 
	C375.479279,223.715897 375.757263,224.549652 376.005646,225.722015 
z"/>
<path fill="#840202" opacity="1.000000" stroke="none" 
	d="
M231.202774,286.707367 
	C225.241730,282.485962 222.265747,276.625214 220.025253,270.364105 
	C214.497681,254.917252 218.070862,240.909195 228.671921,229.205887 
	C234.752579,222.493011 243.232056,218.868103 252.720520,217.902847 
	C264.870239,216.666885 275.354218,220.310730 284.213379,228.143188 
	C290.761108,233.932098 294.524719,241.804565 295.918579,250.436249 
	C297.475372,260.077057 295.796173,269.378265 290.630615,277.747498 
	C283.939453,288.588562 274.083099,294.607849 261.389740,296.010712 
	C250.108795,297.257477 240.108398,294.381805 231.202774,286.707367 
z"/>
</svg>